<svg width="2500" height="2500" viewBox="0 0 2500 2500" fill="none" xmlns="http://www.w3.org/2000/svg">
<mask id="mask0_510_1118" style="mask-type:luminance" maskUnits="userSpaceOnUse" x="0" y="0" width="2500" height="2500">
<path d="M2500 0H0V2500H2500V0Z" fill="white"/>
</mask>
<g mask="url(#mask0_510_1118)">
<path fill-rule="evenodd" clip-rule="evenodd" d="M168.114 1329.13C179.362 1337.24 191.819 1343.52 205.026 1347.74C231.16 1355.99 259.202 1355.99 285.334 1347.73C298.614 1343.52 311.146 1337.25 322.467 1329.13C333.881 1320.91 343.916 1310.93 352.194 1299.56C368.403 1277.16 377.111 1250.21 377.07 1222.56C377.07 1208.98 375.02 1195.33 370.844 1182.21C362.317 1155.34 345.374 1131.92 322.519 1115.41C311.212 1107.27 298.682 1100.97 285.399 1096.76C259.224 1088.47 231.126 1088.46 204.948 1096.75C178.17 1105.33 154.864 1122.29 138.478 1145.14C130.357 1156.46 124.079 1168.99 119.879 1182.27C115.729 1195.4 113.68 1209.02 113.68 1222.56C113.68 1236.1 115.716 1249.57 119.866 1262.58C128.399 1289.36 145.313 1312.69 168.114 1329.13ZM453.487 577.428H36.7559L245.556 1050.49L453.487 577.428Z" fill="#E07512"/>
<path fill-rule="evenodd" clip-rule="evenodd" d="M585.727 1717.64C585.713 1730.48 583.184 1743.19 578.283 1755.06C568.34 1778.99 549.317 1798.02 525.379 1807.96C513.512 1812.86 500.8 1815.38 487.961 1815.39H468.143C455.355 1815.39 442.554 1812.85 430.726 1807.96C406.784 1798.02 387.759 1779 377.822 1755.06C372.924 1743.19 370.399 1730.48 370.39 1717.64L370.222 1495.91L144.69 1495.6V1663C144.69 1697.04 151.487 1731.1 164.482 1762.55C177.572 1794.11 196.737 1822.79 220.888 1846.96C245.053 1871.1 273.728 1890.27 305.282 1903.35C336.855 1916.4 370.677 1923.12 404.838 1923.16H544.276C578.322 1923.16 612.367 1916.36 643.832 1903.35C675.387 1890.27 704.062 1871.11 728.226 1846.96C752.379 1822.79 771.545 1794.11 784.632 1762.55C797.671 1730.98 804.395 1697.16 804.423 1663V578.426L585.624 578.737L585.727 1717.64ZM2252.61 1495.91L2252.43 1692.78C2252.43 1705.56 2249.88 1718.38 2245.01 1730.19C2240.09 1742.05 2232.88 1752.82 2223.81 1761.9C2214.74 1770.99 2203.96 1778.19 2192.1 1783.1C2180.23 1788 2167.52 1790.53 2154.68 1790.54H2134.87C2122.04 1790.53 2109.32 1788 2097.46 1783.1C2085.59 1778.19 2074.82 1770.99 2065.75 1761.9C2056.71 1752.86 2049.43 1742.01 2044.54 1730.19C2039.65 1718.38 2037.1 1705.58 2037.1 1692.78L2037.2 578.737L1818.41 578.426L1818.49 1895.25H2463.07L2463.26 1495.6L2252.61 1495.91ZM1636.08 1298.62C1625.28 1273.04 1609.58 1249.83 1589.86 1230.27C1571.44 1212.01 1549.33 1197.89 1525.01 1188.87C1545.25 1179.16 1563.82 1166.32 1580.05 1150.82C1596.59 1135.11 1611.18 1116.5 1621.01 1095.52C1630.88 1074.35 1636 1051.28 1636.01 1027.92L1636.14 788.251C1636.14 760.547 1630.61 732.831 1620.05 707.268C1609.5 681.704 1593.84 658.307 1574.28 638.761C1554.75 619.216 1531.37 603.548 1505.82 592.965C1480.26 582.382 1452.57 576.844 1424.86 576.844H989.748V1895.31H1441.42C1483.21 1895.31 1524.05 1882.92 1558.8 1859.7C1593.54 1836.49 1620.62 1803.49 1636.62 1764.89C1647.21 1739.21 1652.67 1711.7 1652.7 1683.92C1652.7 1582.87 1652.44 1481.83 1652.7 1380.8C1652.7 1352.57 1647.05 1324.63 1636.08 1298.62ZM1202.05 690.433L1316.56 690.044C1329.4 690.034 1342.12 692.558 1353.98 697.472C1365.84 702.387 1376.62 709.594 1385.69 718.681C1394.76 727.734 1402.01 738.577 1406.89 750.392C1411.78 762.208 1414.29 775.009 1414.34 787.81L1414.95 1052.15C1414.96 1068.21 1410.19 1083.91 1401.27 1097.26C1392.35 1110.62 1379.66 1121.02 1364.82 1127.16C1354.96 1131.21 1344.41 1133.31 1333.76 1133.35L1202.05 1133.86V690.433ZM1417.05 1724.49C1412.97 1734.34 1406.99 1743.29 1399.45 1750.83C1391.91 1758.36 1382.96 1764.34 1373.11 1768.41C1363.25 1772.48 1352.7 1774.58 1342.05 1774.6L1202.06 1775.11V1252.32L1324.85 1251.93C1337.69 1251.92 1350.41 1254.44 1362.27 1259.35C1374.13 1264.27 1384.91 1271.48 1393.98 1280.57C1403.02 1289.61 1410.29 1300.47 1415.18 1312.28C1420.07 1324.1 1422.6 1336.9 1422.63 1349.7L1423.24 1693.42C1423.22 1704.08 1421.12 1714.64 1417.05 1724.49Z" fill="#E07512"/>
</g>
</svg>
