<svg width="2500" height="833" viewBox="0 0 2500 833" fill="none" xmlns="http://www.w3.org/2000/svg">
<mask id="mask0_510_1125" style="mask-type:luminance" maskUnits="userSpaceOnUse" x="0" y="0" width="2500" height="833">
<path d="M2500 0H0V833H2500V0Z" fill="white"/>
</mask>
<g mask="url(#mask0_510_1125)">
<path d="M0.503906 0H2499.5V833H0.503906V0Z" fill="#E22319"/>
<path d="M1088.36 280.809C1050.6 280.809 1010.48 297.327 984.527 332.724V287.892H897.215V608.819H984.527V424.757C984.527 391.721 1010.48 356.324 1057.68 356.324C1093.08 356.324 1130.84 382.281 1130.84 424.757V606.458H1218.15V408.239C1220.5 335.084 1166.23 280.809 1088.36 280.809ZM1845.84 285.531L1765.61 504.986L1685.38 285.531H1586.27L1718.42 606.458H1815.16L1944.95 285.531H1845.84ZM802.825 507.346C765.068 535.665 743.828 540.386 710.792 540.386C680.117 540.386 656.517 530.947 639.999 514.429L864.175 420.039C859.458 384.642 845.297 353.963 826.422 330.367C795.743 294.97 753.268 278.452 698.996 278.452C602.245 278.452 529.091 349.246 529.091 443.636C529.091 540.386 602.245 608.823 708.431 608.823C767.425 608.823 828.779 580.505 857.097 547.465L802.825 507.346ZM632.92 382.281C647.081 361.042 670.674 349.246 701.353 349.246C732.028 349.246 757.985 368.124 769.785 394.082L616.402 457.797C611.685 427.118 621.124 401.16 632.92 382.281ZM522.012 526.225H321.432V191.141H231.76V606.458H522.012V526.225ZM2103.06 611.176C2006.31 611.176 1930.8 540.386 1930.8 445.992C1930.8 353.959 2006.31 280.809 2103.06 280.809C2199.8 280.809 2275.32 351.602 2275.32 445.992C2277.68 540.386 2202.17 611.176 2103.06 611.176ZM2103.06 356.324C2053.5 356.324 2018.1 394.082 2018.1 445.996C2018.1 495.55 2055.86 535.669 2103.06 535.669C2152.61 535.669 2188.01 497.911 2188.01 445.996C2190.37 396.439 2152.61 356.324 2103.06 356.324ZM1425.8 611.176C1329.05 611.176 1253.54 540.386 1253.54 445.992C1253.54 353.959 1329.05 280.809 1425.8 280.809C1522.55 280.809 1598.06 351.602 1598.06 445.992C1598.06 540.382 1522.56 611.176 1425.8 611.176ZM1425.8 356.324C1376.25 356.324 1340.85 394.082 1340.85 445.996C1340.85 495.55 1378.6 535.669 1425.8 535.669C1475.36 535.669 1510.76 497.911 1510.76 445.996C1513.11 396.439 1475.36 356.324 1425.8 356.324ZM2289.48 568.701H2275.32V561.622H2313.08V568.701H2298.92V606.458H2289.48V568.701ZM2322.52 561.626H2331.96L2346.11 582.866L2360.27 561.626H2369.71V608.823H2360.27V575.783L2346.11 597.023L2331.96 575.783V608.823H2322.52V561.626Z" fill="white"/>
</g>
</svg>
