<svg width="2500" height="2500" viewBox="0 0 2500 2500" fill="none" xmlns="http://www.w3.org/2000/svg">
<mask id="mask0_510_1133" style="mask-type:luminance" maskUnits="userSpaceOnUse" x="0" y="0" width="2500" height="2500">
<path d="M2500 0H0V2500H2500V0Z" fill="white"/>
</mask>
<g mask="url(#mask0_510_1133)">
<path fill-rule="evenodd" clip-rule="evenodd" d="M685.309 1178.19H769.626L773.335 1205.98C779.82 1183.75 822.452 1167.99 848.391 1167.99C908.623 1167.99 932.708 1205.06 932.708 1269.92V1409.83H839.131V1284.73C839.131 1259.73 834.501 1241.19 809.482 1241.19C786.318 1241.19 774.269 1266.21 774.269 1283.82V1409.83H685.322L685.309 1178.19ZM139.555 1410.76V1082.75H296.139C389.728 1082.75 432.347 1128.15 432.347 1193.94C432.347 1264.38 393.438 1312.57 296.139 1312.57H243.326V1410.77L139.555 1410.76ZM285.037 1232.85C310.055 1232.85 336.916 1227.29 336.916 1198.57C336.916 1168.93 308.201 1162.44 285.037 1162.44H243.339V1232.85H285.037ZM1715.68 1178.19H1800.92L1803.71 1205.98C1811.12 1183.75 1853.73 1167.99 1879.7 1167.99C1938.99 1167.99 1964 1205.06 1964 1269.92V1410.76H1870.42V1284.73C1870.42 1259.73 1864.84 1241.19 1839.85 1241.19C1817.61 1241.19 1805.55 1266.21 1805.55 1283.82V1410.76H1715.67V1178.19H1715.68ZM1285.76 1327.38C1285.76 1336.65 1290.39 1350.53 1295.94 1355.17C1302.42 1359.8 1310.76 1364.44 1320.97 1364.44C1337.64 1364.44 1350.61 1359.81 1350.61 1344.06C1351.54 1305.15 1209.77 1339.43 1209.77 1246.77C1209.77 1181.92 1259.82 1167.08 1311.7 1167.08C1363.58 1167.08 1434.94 1177.28 1432.15 1247.69H1353.39C1353.39 1241.21 1350.61 1236.58 1346.91 1231.01C1341.33 1224.53 1334.85 1221.75 1322.83 1220.82C1307.07 1219.9 1292.26 1222.67 1292.26 1234.72C1293.16 1270.87 1438.65 1246.77 1438.65 1332.02C1438.65 1391.32 1396.95 1418.2 1316.34 1418.2C1265.37 1417.27 1201.44 1391.33 1201.44 1327.39L1285.76 1327.38ZM2244.76 1268.07C2244.76 1262.49 2244.76 1255.1 2237.36 1245.82C2233.64 1241.19 2225.3 1231 2212.33 1231C2177.12 1231 2167.84 1265.28 2167.84 1293.1C2167.84 1325.52 2182.69 1352.4 2210.48 1352.4C2234.56 1352.4 2246.62 1330.15 2246.62 1311.61H2328.16C2330.02 1359.79 2296.65 1417.24 2206.78 1417.24C2133.57 1417.24 2081.69 1366.27 2081.69 1292.15C2081.69 1202.27 2148.39 1167.98 2205.83 1167.98C2283.68 1167.98 2328.16 1215.24 2327.22 1268.05H2244.76V1268.07ZM586.169 1410.76L576.908 1391.3C559.308 1406.13 540.774 1414.46 511.125 1414.46C482.397 1413.55 425.875 1409.83 425.875 1347.75C425.875 1245.82 577.842 1292.15 577.842 1242.11C577.842 1225.43 559.308 1226.36 549.114 1226.36C530.58 1226.36 518.544 1230.06 515.756 1257.85H437.924C437.924 1209.68 452.761 1168.91 554.678 1168.91C653.832 1168.91 664.013 1220.79 664.013 1271.76V1377.4C664.013 1391.3 664.947 1397.79 674.207 1407.97V1409.83L586.169 1410.76ZM578.763 1304.2C547.259 1319.05 507.416 1318.1 506.495 1341.28C506.495 1356.1 514.835 1363.5 533.369 1363.5C563.938 1363.5 580.617 1332.01 578.763 1304.2ZM1108.77 1410.76L1099.51 1391.3C1081.91 1406.13 1062.44 1414.46 1033.72 1414.46C1004.07 1413.55 947.545 1409.83 947.545 1347.75C947.545 1245.82 1099.51 1292.15 1100.43 1242.11C1100.43 1225.43 1080.98 1226.36 1071.72 1226.36C1052.26 1226.36 1041.13 1230.06 1038.36 1257.85H960.528C960.528 1209.68 974.418 1168.91 1077.27 1168.91C1175.49 1168.91 1185.68 1220.79 1185.68 1271.76V1377.4C1185.68 1391.3 1186.6 1397.79 1195.88 1407.97V1409.83L1108.77 1410.76ZM1101.35 1304.2C1069.85 1319.05 1029.07 1318.1 1029.07 1341.28C1029.07 1356.1 1036.48 1363.5 1055.95 1363.5C1085.61 1363.5 1103.21 1332.01 1101.35 1304.2ZM2066.85 1410.76V1178.19H1980.69V1410.76H2066.85ZM1980.7 1148.54H2066.86V1081.82H1980.7V1148.54ZM1576.68 1169.85C1653.59 1169.85 1700.85 1223.59 1700.85 1294.01C1700.85 1365.37 1653.58 1418.18 1576.68 1418.18C1499.78 1418.18 1451.59 1365.37 1451.59 1294.01C1451.6 1223.59 1499.78 1169.85 1576.68 1169.85ZM1535.93 1294.01C1535.93 1322.73 1545.2 1357.95 1576.7 1358.88C1608.21 1358.88 1616.54 1322.73 1616.54 1294.01C1616.54 1266.21 1608.2 1230.08 1576.7 1230.08C1545.2 1230.08 1536.87 1266.22 1535.93 1294.01ZM2382.84 1365.37C2388.4 1365.37 2396.72 1366.27 2396.72 1358.88C2396.72 1352.4 2391.17 1351.46 2386.54 1351.46H2375.43V1365.37H2382.84ZM2401.35 1387.61H2395.8L2384.69 1369.06H2375.41V1387.61H2370.78V1347.77H2387.47C2394.92 1347.77 2401.53 1350 2401.53 1358.88C2401.53 1366.27 2396.72 1369.06 2389.33 1369.06L2401.35 1387.61ZM2414.81 1368.61C2414.81 1351.01 2400.91 1337.09 2384.24 1337.09C2380.1 1337.06 2375.98 1337.85 2372.14 1339.42C2368.3 1340.99 2364.82 1343.31 2361.88 1346.25C2358.95 1349.18 2356.63 1352.67 2355.06 1356.51C2353.49 1360.35 2352.69 1364.46 2352.73 1368.61C2352.73 1385.27 2366.63 1399.18 2384.24 1399.18C2392.33 1399.11 2400.06 1395.86 2405.78 1390.15C2411.5 1384.43 2414.74 1376.69 2414.81 1368.61ZM2348.54 1368.13C2348.54 1358.79 2352.25 1349.83 2358.85 1343.23C2365.46 1336.62 2374.41 1332.91 2383.75 1332.91C2393.09 1332.91 2402.05 1336.62 2408.65 1343.23C2415.26 1349.83 2418.96 1358.79 2418.96 1368.13C2418.96 1387.61 2403.21 1403.34 2383.75 1403.34C2364.3 1403.34 2348.54 1387.61 2348.54 1368.13Z" fill="#2866AD"/>
</g>
</svg>
