<svg width="2478" height="3053" viewBox="0 0 2478 3053" fill="none" xmlns="http://www.w3.org/2000/svg">
<g filter="url(#filter0_d_398_1017)">
<path d="M1275.27 438.949L1571.25 253.426L1039.48 1106.42L705.482 1321.42L1275.27 438.949Z" fill="url(#paint0_linear_398_1017)"/>
</g>
<g filter="url(#filter1_d_398_1017)">
<path d="M1048.98 1118.42L1083.37 1110.82L1247.14 1076.78L1348.27 1052.75L1454.68 1048.51L1459.19 1161.93L1203.88 1222.12L1050.24 1259.25L918.777 1288L717.482 1336.42L1048.98 1118.42Z" fill="url(#paint1_linear_398_1017)"/>
</g>
<g filter="url(#filter2_d_398_1017)">
<path d="M1347.27 1052.79L1552.6 1006.59L1784.96 1061.4L1571.27 1123.94L1362.53 1184.78L1347.27 1052.79Z" fill="#36CEC4"/>
</g>
<g filter="url(#filter3_d_398_1017)">
<path d="M1513.48 894.921L1651.12 734.05L1468.98 1155.92L745.618 2245.36L1370.48 1042.92L1513.48 894.921Z" fill="url(#paint2_linear_398_1017)"/>
</g>
<g filter="url(#filter4_d_398_1017)">
<path d="M1570.38 254.128L1478.56 318.293L1450.03 398.286L1274.52 439.239L793.984 479.421L1251.48 343.921L1570.38 254.128Z" fill="url(#paint3_linear_398_1017)"/>
</g>
<g filter="url(#filter5_d_398_1017)">
<path d="M358.779 2910.4H69.2285C64.6712 2910.4 60.4395 2909.59 56.5332 2907.96C52.627 2906.33 49.209 2904.14 46.2793 2901.37C43.5124 2898.44 41.3151 2895.02 39.6875 2891.12C38.0599 2887.21 37.2461 2882.98 37.2461 2878.42V2560.31H100.723V2846.93H358.779V2910.4ZM691.787 2767.34H491.348V2703.37H691.787V2767.34ZM720.352 2910.4H491.348C482.559 2910.4 472.956 2908.86 462.539 2905.76C452.122 2902.67 442.438 2897.63 433.486 2890.63C424.697 2883.47 417.292 2874.27 411.27 2863.04C405.41 2851.65 402.48 2837.73 402.48 2821.29V2592.29C402.48 2587.89 403.294 2583.74 404.922 2579.84C406.549 2575.93 408.747 2572.51 411.514 2569.58C414.443 2566.65 417.861 2564.37 421.768 2562.75C425.674 2561.12 429.906 2560.31 434.463 2560.31H720.352V2623.78H465.957V2821.29C465.957 2829.59 468.154 2835.94 472.549 2840.33C476.943 2844.73 483.372 2846.93 491.836 2846.93H720.352V2910.4ZM1189.35 2910.4H1125.38V2701.91L1012.83 2899.91C1010.07 2904.95 1006.16 2908.78 1001.11 2911.38C996.23 2913.98 990.941 2915.29 985.244 2915.29C979.71 2915.29 974.502 2913.98 969.619 2911.38C964.899 2908.78 961.156 2904.95 958.389 2899.91L845.352 2701.91V2910.4H781.875V2587.41C781.875 2580.08 783.991 2573.57 788.223 2567.87C792.617 2562.18 798.314 2558.35 805.312 2556.4C808.73 2555.59 812.148 2555.34 815.566 2555.67C818.984 2555.83 822.24 2556.56 825.332 2557.86C828.587 2559 831.517 2560.71 834.121 2562.99C836.725 2565.11 838.923 2567.71 840.713 2570.8L985.244 2822.02L1129.78 2570.8C1133.52 2564.62 1138.65 2560.22 1145.16 2557.62C1151.83 2555.02 1158.75 2554.61 1165.91 2556.4C1172.74 2558.35 1178.36 2562.18 1182.75 2567.87C1187.15 2573.57 1189.35 2580.08 1189.35 2587.41V2910.4ZM1613.17 2883.3C1613.17 2887.86 1612.28 2892.09 1610.49 2896C1608.86 2899.91 1606.58 2903.32 1603.65 2906.25C1600.89 2909.02 1597.55 2911.22 1593.64 2912.84C1589.74 2914.47 1585.59 2915.29 1581.19 2915.29C1577.29 2915.29 1573.3 2914.55 1569.23 2913.09C1565.32 2911.62 1561.82 2909.26 1558.73 2906.01L1326.8 2663.82V2910.4H1263.32V2587.41C1263.32 2580.89 1265.11 2575.04 1268.69 2569.83C1272.43 2564.46 1277.15 2560.47 1282.85 2557.86C1288.87 2555.42 1295.06 2554.85 1301.41 2556.16C1307.75 2557.29 1313.21 2560.22 1317.76 2564.94L1549.7 2806.89V2560.31H1613.17V2883.3ZM2054.58 2768.8C2054.58 2790.12 2050.92 2809.74 2043.59 2827.64C2036.27 2845.54 2026.1 2861.01 2013.08 2874.03C2000.06 2887.05 1984.59 2897.22 1966.69 2904.54C1948.95 2911.71 1929.58 2915.29 1908.58 2915.29H1822.65C1801.65 2915.29 1782.2 2911.71 1764.3 2904.54C1746.39 2897.22 1730.93 2887.05 1717.91 2874.03C1704.89 2861.01 1694.64 2845.54 1687.15 2827.64C1679.82 2809.74 1676.16 2790.12 1676.16 2768.8V2701.91C1676.16 2680.75 1679.82 2661.22 1687.15 2643.31C1694.64 2625.25 1704.89 2609.78 1717.91 2596.93C1730.93 2583.91 1746.39 2573.73 1764.3 2566.41C1782.2 2559.08 1801.65 2555.42 1822.65 2555.42H1908.58C1929.58 2555.42 1948.95 2559.08 1966.69 2566.41C1984.59 2573.73 2000.06 2583.91 2013.08 2596.93C2026.1 2609.78 2036.27 2625.25 2043.59 2643.31C2050.92 2661.22 2054.58 2680.75 2054.58 2701.91V2768.8ZM1991.1 2701.91C1991.1 2689.37 1989.07 2678.06 1985 2667.97C1981.09 2657.72 1975.48 2649.01 1968.15 2641.85C1960.99 2634.52 1952.29 2628.91 1942.03 2625C1931.94 2620.93 1920.79 2618.9 1908.58 2618.9H1822.65C1810.28 2618.9 1798.96 2620.93 1788.71 2625C1778.62 2628.91 1769.91 2634.52 1762.59 2641.85C1755.26 2649.01 1749.57 2657.72 1745.5 2667.97C1741.59 2678.06 1739.64 2689.37 1739.64 2701.91V2768.8C1739.64 2781.33 1741.59 2792.73 1745.5 2802.98C1749.57 2813.07 1755.26 2821.78 1762.59 2829.1C1769.91 2836.27 1778.62 2841.88 1788.71 2845.95C1798.96 2849.86 1810.28 2851.81 1822.65 2851.81H1908.1C1920.47 2851.81 1931.7 2849.86 1941.79 2845.95C1952.04 2841.88 1960.83 2836.27 1968.15 2829.1C1975.48 2821.78 1981.09 2813.07 1985 2802.98C1989.07 2792.73 1991.1 2781.33 1991.1 2768.8V2701.91ZM2453.75 2807.38C2453.75 2819.91 2452.12 2831.22 2448.87 2841.31C2445.77 2851.24 2441.62 2860.03 2436.42 2867.68C2431.21 2875.33 2425.1 2881.84 2418.11 2887.21C2411.11 2892.58 2403.86 2896.98 2396.38 2900.39C2388.89 2903.81 2381.24 2906.33 2373.43 2907.96C2365.78 2909.59 2358.54 2910.4 2351.7 2910.4H2106.83V2846.93H2351.7C2363.91 2846.93 2373.35 2843.35 2380.02 2836.18C2386.86 2829.02 2390.27 2819.42 2390.27 2807.38C2390.27 2801.52 2389.38 2796.15 2387.59 2791.26C2385.8 2786.38 2383.19 2782.15 2379.78 2778.57C2376.52 2774.99 2372.45 2772.22 2367.57 2770.27C2362.85 2768.31 2357.56 2767.34 2351.7 2767.34H2205.7C2195.45 2767.34 2184.38 2765.55 2172.5 2761.97C2160.62 2758.22 2149.55 2752.28 2139.3 2744.14C2129.21 2736.01 2120.74 2725.34 2113.91 2712.16C2107.23 2698.98 2103.9 2682.86 2103.9 2663.82C2103.9 2644.78 2107.23 2628.75 2113.91 2615.73C2120.74 2602.54 2129.21 2591.88 2139.3 2583.74C2149.55 2575.44 2160.62 2569.5 2172.5 2565.92C2184.38 2562.18 2195.45 2560.31 2205.7 2560.31H2421.77V2623.78H2205.7C2193.66 2623.78 2184.22 2627.44 2177.38 2634.77C2170.71 2642.09 2167.37 2651.78 2167.37 2663.82C2167.37 2676.03 2170.71 2685.71 2177.38 2692.87C2184.22 2699.87 2193.66 2703.37 2205.7 2703.37H2351.7H2352.19C2359.02 2703.53 2366.27 2704.51 2373.92 2706.3C2381.57 2707.93 2389.13 2710.53 2396.62 2714.11C2404.27 2717.69 2411.51 2722.25 2418.35 2727.79C2425.19 2733.16 2431.21 2739.67 2436.42 2747.32C2441.79 2754.97 2446.02 2763.76 2449.11 2773.68C2452.2 2783.61 2453.75 2794.84 2453.75 2807.38Z" fill="#F9FBFB"/>
</g>
<defs>
<filter id="filter0_d_398_1017" x="705.482" y="253.426" width="889.971" height="1092.2" filterUnits="userSpaceOnUse" color-interpolation-filters="sRGB">
<feFlood flood-opacity="0" result="BackgroundImageFix"/>
<feColorMatrix in="SourceAlpha" type="matrix" values="0 0 0 0 0 0 0 0 0 0 0 0 0 0 0 0 0 0 127 0" result="hardAlpha"/>
<feOffset dx="15" dy="15"/>
<feGaussianBlur stdDeviation="4.6"/>
<feComposite in2="hardAlpha" operator="out"/>
<feColorMatrix type="matrix" values="0 0 0 0 0.0705882 0 0 0 0 0.0901961 0 0 0 0 0.0901961 0 0 0 0.25 0"/>
<feBlend mode="normal" in2="BackgroundImageFix" result="effect1_dropShadow_398_1017"/>
<feBlend mode="normal" in="SourceGraphic" in2="effect1_dropShadow_398_1017" result="shape"/>
</filter>
<filter id="filter1_d_398_1017" x="717.482" y="1048.51" width="765.912" height="312.105" filterUnits="userSpaceOnUse" color-interpolation-filters="sRGB">
<feFlood flood-opacity="0" result="BackgroundImageFix"/>
<feColorMatrix in="SourceAlpha" type="matrix" values="0 0 0 0 0 0 0 0 0 0 0 0 0 0 0 0 0 0 127 0" result="hardAlpha"/>
<feOffset dx="15" dy="15"/>
<feGaussianBlur stdDeviation="4.6"/>
<feComposite in2="hardAlpha" operator="out"/>
<feColorMatrix type="matrix" values="0 0 0 0 0.0705882 0 0 0 0 0.0901961 0 0 0 0 0.0901961 0 0 0 0.25 0"/>
<feBlend mode="normal" in2="BackgroundImageFix" result="effect1_dropShadow_398_1017"/>
<feBlend mode="normal" in="SourceGraphic" in2="effect1_dropShadow_398_1017" result="shape"/>
</filter>
<filter id="filter2_d_398_1017" x="1347.27" y="1006.59" width="461.888" height="202.393" filterUnits="userSpaceOnUse" color-interpolation-filters="sRGB">
<feFlood flood-opacity="0" result="BackgroundImageFix"/>
<feColorMatrix in="SourceAlpha" type="matrix" values="0 0 0 0 0 0 0 0 0 0 0 0 0 0 0 0 0 0 127 0" result="hardAlpha"/>
<feOffset dx="15" dy="15"/>
<feGaussianBlur stdDeviation="4.6"/>
<feComposite in2="hardAlpha" operator="out"/>
<feColorMatrix type="matrix" values="0 0 0 0 0.0705882 0 0 0 0 0.0901961 0 0 0 0 0.0901961 0 0 0 0.25 0"/>
<feBlend mode="normal" in2="BackgroundImageFix" result="effect1_dropShadow_398_1017"/>
<feBlend mode="normal" in="SourceGraphic" in2="effect1_dropShadow_398_1017" result="shape"/>
</filter>
<filter id="filter3_d_398_1017" x="745.618" y="734.051" width="929.7" height="1535.51" filterUnits="userSpaceOnUse" color-interpolation-filters="sRGB">
<feFlood flood-opacity="0" result="BackgroundImageFix"/>
<feColorMatrix in="SourceAlpha" type="matrix" values="0 0 0 0 0 0 0 0 0 0 0 0 0 0 0 0 0 0 127 0" result="hardAlpha"/>
<feOffset dx="15" dy="15"/>
<feGaussianBlur stdDeviation="4.6"/>
<feComposite in2="hardAlpha" operator="out"/>
<feColorMatrix type="matrix" values="0 0 0 0 0.0705882 0 0 0 0 0.0901961 0 0 0 0 0.0901961 0 0 0 0.25 0"/>
<feBlend mode="normal" in2="BackgroundImageFix" result="effect1_dropShadow_398_1017"/>
<feBlend mode="normal" in="SourceGraphic" in2="effect1_dropShadow_398_1017" result="shape"/>
</filter>
<filter id="filter4_d_398_1017" x="793.983" y="254.128" width="800.6" height="249.493" filterUnits="userSpaceOnUse" color-interpolation-filters="sRGB">
<feFlood flood-opacity="0" result="BackgroundImageFix"/>
<feColorMatrix in="SourceAlpha" type="matrix" values="0 0 0 0 0 0 0 0 0 0 0 0 0 0 0 0 0 0 127 0" result="hardAlpha"/>
<feOffset dx="15" dy="15"/>
<feGaussianBlur stdDeviation="4.6"/>
<feComposite in2="hardAlpha" operator="out"/>
<feColorMatrix type="matrix" values="0 0 0 0 0.0705882 0 0 0 0 0.0901961 0 0 0 0 0.0901961 0 0 0 0.25 0"/>
<feBlend mode="normal" in2="BackgroundImageFix" result="effect1_dropShadow_398_1017"/>
<feBlend mode="normal" in="SourceGraphic" in2="effect1_dropShadow_398_1017" result="shape"/>
</filter>
<filter id="filter5_d_398_1017" x="37.2461" y="2553.71" width="2440.5" height="375.572" filterUnits="userSpaceOnUse" color-interpolation-filters="sRGB">
<feFlood flood-opacity="0" result="BackgroundImageFix"/>
<feColorMatrix in="SourceAlpha" type="matrix" values="0 0 0 0 0 0 0 0 0 0 0 0 0 0 0 0 0 0 127 0" result="hardAlpha"/>
<feOffset dx="20" dy="10"/>
<feGaussianBlur stdDeviation="2"/>
<feComposite in2="hardAlpha" operator="out"/>
<feColorMatrix type="matrix" values="0 0 0 0 0 0 0 0 0 0 0 0 0 0 0 0 0 0 0.25 0"/>
<feBlend mode="normal" in2="BackgroundImageFix" result="effect1_dropShadow_398_1017"/>
<feBlend mode="normal" in="SourceGraphic" in2="effect1_dropShadow_398_1017" result="shape"/>
</filter>
<linearGradient id="paint0_linear_398_1017" x1="1532.36" y1="226.714" x2="756.451" y2="1356.43" gradientUnits="userSpaceOnUse">
<stop offset="0.245" stop-color="#36CEC4"/>
<stop offset="1" stop-color="#B1E5E1"/>
</linearGradient>
<linearGradient id="paint1_linear_398_1017" x1="1080.95" y1="1063.38" x2="1091.22" y2="1321.56" gradientUnits="userSpaceOnUse">
<stop offset="0.245" stop-color="#36CEC4"/>
<stop offset="1" stop-color="#B1E5E1"/>
</linearGradient>
<linearGradient id="paint2_linear_398_1017" x1="1605.95" y1="711.283" x2="815.105" y2="2280.38" gradientUnits="userSpaceOnUse">
<stop offset="0.32" stop-color="#1E817A"/>
<stop offset="1" stop-color="#6DCDC7"/>
</linearGradient>
<linearGradient id="paint3_linear_398_1017" x1="1291.33" y1="127.064" x2="1073.03" y2="606.485" gradientUnits="userSpaceOnUse">
<stop offset="0.34" stop-color="#1E817A"/>
<stop offset="1" stop-color="#6DCDC7"/>
</linearGradient>
</defs>
</svg>
