<svg width="3687" height="2316" viewBox="0 0 3687 2316" fill="none" xmlns="http://www.w3.org/2000/svg">
<g filter="url(#filter0_d_398_1017)">
<path d="M594.46 438.949L890.443 253.425L358.673 1106.42L24.6719 1321.42L594.46 438.949Z" fill="url(#paint0_linear_398_1017)"/>
</g>
<g filter="url(#filter1_d_398_1017)">
<path d="M368.172 1118.42L402.556 1110.82L566.333 1076.78L667.458 1052.75L773.874 1048.51L778.384 1161.93L523.074 1222.12L369.429 1259.25L237.967 1288L36.6721 1336.42L368.172 1118.42Z" fill="url(#paint1_linear_398_1017)"/>
</g>
<g filter="url(#filter2_d_398_1017)">
<path d="M666.46 1052.79L871.787 1006.59L1104.15 1061.4L890.465 1123.94L681.717 1184.78L666.46 1052.79Z" fill="#36CEC4"/>
</g>
<g filter="url(#filter3_d_398_1017)">
<path d="M832.673 894.92L970.307 734.05L788.173 1155.92L64.8072 2245.36L689.673 1042.92L832.673 894.92Z" fill="url(#paint2_linear_398_1017)"/>
</g>
<g filter="url(#filter4_d_398_1017)">
<path d="M889.573 254.128L797.745 318.293L769.224 398.286L593.713 439.239L113.174 479.421L570.673 343.921L889.573 254.128Z" fill="url(#paint3_linear_398_1017)"/>
</g>
<g filter="url(#filter5_d_398_1017)">
<path d="M1567.16 1334.2H1277.61C1273.05 1334.2 1268.82 1333.39 1264.91 1331.76C1261.01 1330.13 1257.59 1327.94 1254.66 1325.17C1251.89 1322.24 1249.69 1318.82 1248.07 1314.91C1246.44 1311.01 1245.63 1306.78 1245.63 1302.22V984.104H1309.1V1270.73H1567.16V1334.2ZM1900.17 1191.14H1699.73V1127.17H1900.17V1191.14ZM1928.73 1334.2H1699.73C1690.94 1334.2 1681.34 1332.66 1670.92 1329.56C1660.5 1326.47 1650.82 1321.42 1641.87 1314.43C1633.08 1307.26 1625.67 1298.07 1619.65 1286.84C1613.79 1275.45 1610.86 1261.53 1610.86 1245.09V1016.09C1610.86 1011.69 1611.67 1007.54 1613.3 1003.64C1614.93 999.729 1617.13 996.311 1619.89 993.381C1622.82 990.452 1626.24 988.173 1630.15 986.545C1634.05 984.918 1638.29 984.104 1642.84 984.104H1928.73V1047.58H1674.34V1245.09C1674.34 1253.39 1676.53 1259.74 1680.93 1264.13C1685.32 1268.53 1691.75 1270.73 1700.22 1270.73H1928.73V1334.2ZM2397.73 1334.2H2333.76V1125.71L2221.21 1323.7C2218.44 1328.75 2214.54 1332.57 2209.49 1335.18C2204.61 1337.78 2199.32 1339.08 2193.62 1339.08C2188.09 1339.08 2182.88 1337.78 2178 1335.18C2173.28 1332.57 2169.54 1328.75 2166.77 1323.7L2053.73 1125.71V1334.2H1990.25V1011.2C1990.25 1003.88 1992.37 997.369 1996.6 991.672C2001 985.976 2006.69 982.151 2013.69 980.198C2017.11 979.384 2020.53 979.14 2023.95 979.465C2027.36 979.628 2030.62 980.361 2033.71 981.663C2036.97 982.802 2039.9 984.511 2042.5 986.79C2045.11 988.905 2047.3 991.51 2049.09 994.602L2193.62 1245.82L2338.16 994.602C2341.9 988.417 2347.03 984.023 2353.54 981.418C2360.21 978.814 2367.13 978.407 2374.29 980.198C2381.12 982.151 2386.74 985.976 2391.13 991.672C2395.53 997.369 2397.73 1003.88 2397.73 1011.2V1334.2ZM2821.55 1307.1C2821.55 1311.66 2820.66 1315.89 2818.87 1319.8C2817.24 1323.7 2814.96 1327.12 2812.03 1330.05C2809.27 1332.82 2805.93 1335.02 2802.02 1336.64C2798.12 1338.27 2793.97 1339.08 2789.57 1339.08C2785.67 1339.08 2781.68 1338.35 2777.61 1336.89C2773.7 1335.42 2770.2 1333.06 2767.11 1329.81L2535.18 1087.62V1334.2H2471.7V1011.2C2471.7 1004.69 2473.49 998.834 2477.07 993.625C2480.81 988.254 2485.53 984.267 2491.23 981.663C2497.25 979.221 2503.44 978.652 2509.79 979.954C2516.13 981.093 2521.59 984.023 2526.14 988.743L2758.08 1230.69V984.104H2821.55V1307.1ZM3262.96 1192.6C3262.96 1213.92 3259.3 1233.53 3251.97 1251.44C3244.65 1269.34 3234.48 1284.8 3221.46 1297.82C3208.44 1310.85 3192.97 1321.02 3175.07 1328.34C3157.33 1335.5 3137.96 1339.08 3116.96 1339.08H3031.03C3010.03 1339.08 2990.58 1335.5 2972.68 1328.34C2954.77 1321.02 2939.31 1310.85 2926.29 1297.82C2913.27 1284.8 2903.02 1269.34 2895.53 1251.44C2888.2 1233.53 2884.54 1213.92 2884.54 1192.6V1125.71C2884.54 1104.55 2888.2 1085.02 2895.53 1067.11C2903.02 1049.05 2913.27 1033.58 2926.29 1020.73C2939.31 1007.7 2954.77 997.532 2972.68 990.208C2990.58 982.883 3010.03 979.221 3031.03 979.221H3116.96C3137.96 979.221 3157.33 982.883 3175.07 990.208C3192.97 997.532 3208.44 1007.7 3221.46 1020.73C3234.48 1033.58 3244.65 1049.05 3251.97 1067.11C3259.3 1085.02 3262.96 1104.55 3262.96 1125.71V1192.6ZM3199.48 1125.71C3199.48 1113.17 3197.45 1101.86 3193.38 1091.77C3189.47 1081.52 3183.86 1072.81 3176.53 1065.65C3169.37 1058.32 3160.67 1052.71 3150.41 1048.8C3140.32 1044.73 3129.17 1042.7 3116.96 1042.7H3031.03C3018.66 1042.7 3007.34 1044.73 2997.09 1048.8C2987 1052.71 2978.29 1058.32 2970.97 1065.65C2963.64 1072.81 2957.95 1081.52 2953.88 1091.77C2949.97 1101.86 2948.02 1113.17 2948.02 1125.71V1192.6C2948.02 1205.13 2949.97 1216.53 2953.88 1226.78C2957.95 1236.87 2963.64 1245.58 2970.97 1252.9C2978.29 1260.06 2987 1265.68 2997.09 1269.75C3007.34 1273.65 3018.66 1275.61 3031.03 1275.61H3116.48C3128.85 1275.61 3140.08 1273.65 3150.17 1269.75C3160.42 1265.68 3169.21 1260.06 3176.53 1252.9C3183.86 1245.58 3189.47 1236.87 3193.38 1226.78C3197.45 1216.53 3199.48 1205.13 3199.48 1192.6V1125.71ZM3662.13 1231.17C3662.13 1243.71 3660.5 1255.02 3657.25 1265.11C3654.15 1275.04 3650 1283.83 3644.8 1291.48C3639.59 1299.13 3633.48 1305.64 3626.49 1311.01C3619.49 1316.38 3612.24 1320.77 3604.76 1324.19C3597.27 1327.61 3589.62 1330.13 3581.81 1331.76C3574.16 1333.39 3566.92 1334.2 3560.08 1334.2H3315.21V1270.73H3560.08C3572.29 1270.73 3581.73 1267.14 3588.4 1259.98C3595.24 1252.82 3598.65 1243.22 3598.65 1231.17C3598.65 1225.31 3597.76 1219.94 3595.97 1215.06C3594.18 1210.18 3591.57 1205.95 3588.16 1202.37C3584.9 1198.78 3580.83 1196.02 3575.95 1194.06C3571.23 1192.11 3565.94 1191.14 3560.08 1191.14H3414.08C3403.83 1191.14 3392.76 1189.34 3380.88 1185.76C3369 1182.02 3357.93 1176.08 3347.68 1167.94C3337.59 1159.8 3329.12 1149.14 3322.29 1135.96C3315.61 1122.78 3312.28 1106.66 3312.28 1087.62C3312.28 1068.58 3315.61 1052.54 3322.29 1039.52C3329.12 1026.34 3337.59 1015.68 3347.68 1007.54C3357.93 999.241 3369 993.3 3380.88 989.719C3392.76 985.976 3403.83 984.104 3414.08 984.104H3630.15V1047.58H3414.08C3402.04 1047.58 3392.6 1051.24 3385.76 1058.57C3379.09 1065.89 3375.75 1075.58 3375.75 1087.62C3375.75 1099.83 3379.09 1109.51 3385.76 1116.67C3392.6 1123.67 3402.04 1127.17 3414.08 1127.17H3560.08H3560.57C3567.4 1127.33 3574.65 1128.31 3582.3 1130.1C3589.95 1131.73 3597.51 1134.33 3605 1137.91C3612.65 1141.49 3619.89 1146.05 3626.73 1151.58C3633.57 1156.96 3639.59 1163.47 3644.8 1171.12C3650.17 1178.77 3654.4 1187.55 3657.49 1197.48C3660.58 1207.41 3662.13 1218.64 3662.13 1231.17Z" fill="#F9FBFB"/>
</g>
<defs>
<filter id="filter0_d_398_1017" x="24.6719" y="253.425" width="889.971" height="1092.2" filterUnits="userSpaceOnUse" color-interpolation-filters="sRGB">
<feFlood flood-opacity="0" result="BackgroundImageFix"/>
<feColorMatrix in="SourceAlpha" type="matrix" values="0 0 0 0 0 0 0 0 0 0 0 0 0 0 0 0 0 0 127 0" result="hardAlpha"/>
<feOffset dx="15" dy="15"/>
<feGaussianBlur stdDeviation="4.6"/>
<feComposite in2="hardAlpha" operator="out"/>
<feColorMatrix type="matrix" values="0 0 0 0 0.0705882 0 0 0 0 0.0901961 0 0 0 0 0.0901961 0 0 0 0.25 0"/>
<feBlend mode="normal" in2="BackgroundImageFix" result="effect1_dropShadow_398_1017"/>
<feBlend mode="normal" in="SourceGraphic" in2="effect1_dropShadow_398_1017" result="shape"/>
</filter>
<filter id="filter1_d_398_1017" x="36.6721" y="1048.52" width="765.912" height="312.105" filterUnits="userSpaceOnUse" color-interpolation-filters="sRGB">
<feFlood flood-opacity="0" result="BackgroundImageFix"/>
<feColorMatrix in="SourceAlpha" type="matrix" values="0 0 0 0 0 0 0 0 0 0 0 0 0 0 0 0 0 0 127 0" result="hardAlpha"/>
<feOffset dx="15" dy="15"/>
<feGaussianBlur stdDeviation="4.6"/>
<feComposite in2="hardAlpha" operator="out"/>
<feColorMatrix type="matrix" values="0 0 0 0 0.0705882 0 0 0 0 0.0901961 0 0 0 0 0.0901961 0 0 0 0.25 0"/>
<feBlend mode="normal" in2="BackgroundImageFix" result="effect1_dropShadow_398_1017"/>
<feBlend mode="normal" in="SourceGraphic" in2="effect1_dropShadow_398_1017" result="shape"/>
</filter>
<filter id="filter2_d_398_1017" x="666.46" y="1006.59" width="461.888" height="202.393" filterUnits="userSpaceOnUse" color-interpolation-filters="sRGB">
<feFlood flood-opacity="0" result="BackgroundImageFix"/>
<feColorMatrix in="SourceAlpha" type="matrix" values="0 0 0 0 0 0 0 0 0 0 0 0 0 0 0 0 0 0 127 0" result="hardAlpha"/>
<feOffset dx="15" dy="15"/>
<feGaussianBlur stdDeviation="4.6"/>
<feComposite in2="hardAlpha" operator="out"/>
<feColorMatrix type="matrix" values="0 0 0 0 0.0705882 0 0 0 0 0.0901961 0 0 0 0 0.0901961 0 0 0 0.25 0"/>
<feBlend mode="normal" in2="BackgroundImageFix" result="effect1_dropShadow_398_1017"/>
<feBlend mode="normal" in="SourceGraphic" in2="effect1_dropShadow_398_1017" result="shape"/>
</filter>
<filter id="filter3_d_398_1017" x="64.8071" y="734.05" width="929.7" height="1535.51" filterUnits="userSpaceOnUse" color-interpolation-filters="sRGB">
<feFlood flood-opacity="0" result="BackgroundImageFix"/>
<feColorMatrix in="SourceAlpha" type="matrix" values="0 0 0 0 0 0 0 0 0 0 0 0 0 0 0 0 0 0 127 0" result="hardAlpha"/>
<feOffset dx="15" dy="15"/>
<feGaussianBlur stdDeviation="4.6"/>
<feComposite in2="hardAlpha" operator="out"/>
<feColorMatrix type="matrix" values="0 0 0 0 0.0705882 0 0 0 0 0.0901961 0 0 0 0 0.0901961 0 0 0 0.25 0"/>
<feBlend mode="normal" in2="BackgroundImageFix" result="effect1_dropShadow_398_1017"/>
<feBlend mode="normal" in="SourceGraphic" in2="effect1_dropShadow_398_1017" result="shape"/>
</filter>
<filter id="filter4_d_398_1017" x="113.173" y="254.128" width="800.6" height="249.492" filterUnits="userSpaceOnUse" color-interpolation-filters="sRGB">
<feFlood flood-opacity="0" result="BackgroundImageFix"/>
<feColorMatrix in="SourceAlpha" type="matrix" values="0 0 0 0 0 0 0 0 0 0 0 0 0 0 0 0 0 0 127 0" result="hardAlpha"/>
<feOffset dx="15" dy="15"/>
<feGaussianBlur stdDeviation="4.6"/>
<feComposite in2="hardAlpha" operator="out"/>
<feColorMatrix type="matrix" values="0 0 0 0 0.0705882 0 0 0 0 0.0901961 0 0 0 0 0.0901961 0 0 0 0.25 0"/>
<feBlend mode="normal" in2="BackgroundImageFix" result="effect1_dropShadow_398_1017"/>
<feBlend mode="normal" in="SourceGraphic" in2="effect1_dropShadow_398_1017" result="shape"/>
</filter>
<filter id="filter5_d_398_1017" x="1245.63" y="977.512" width="2440.5" height="375.572" filterUnits="userSpaceOnUse" color-interpolation-filters="sRGB">
<feFlood flood-opacity="0" result="BackgroundImageFix"/>
<feColorMatrix in="SourceAlpha" type="matrix" values="0 0 0 0 0 0 0 0 0 0 0 0 0 0 0 0 0 0 127 0" result="hardAlpha"/>
<feOffset dx="20" dy="10"/>
<feGaussianBlur stdDeviation="2"/>
<feComposite in2="hardAlpha" operator="out"/>
<feColorMatrix type="matrix" values="0 0 0 0 0 0 0 0 0 0 0 0 0 0 0 0 0 0 0.25 0"/>
<feBlend mode="normal" in2="BackgroundImageFix" result="effect1_dropShadow_398_1017"/>
<feBlend mode="normal" in="SourceGraphic" in2="effect1_dropShadow_398_1017" result="shape"/>
</filter>
<linearGradient id="paint0_linear_398_1017" x1="851.55" y1="226.713" x2="75.6409" y2="1356.43" gradientUnits="userSpaceOnUse">
<stop offset="0.245" stop-color="#36CEC4"/>
<stop offset="1" stop-color="#B1E5E1"/>
</linearGradient>
<linearGradient id="paint1_linear_398_1017" x1="400.139" y1="1063.38" x2="410.407" y2="1321.56" gradientUnits="userSpaceOnUse">
<stop offset="0.245" stop-color="#36CEC4"/>
<stop offset="1" stop-color="#B1E5E1"/>
</linearGradient>
<linearGradient id="paint2_linear_398_1017" x1="925.135" y1="711.283" x2="134.295" y2="2280.38" gradientUnits="userSpaceOnUse">
<stop offset="0.32" stop-color="#1E817A"/>
<stop offset="1" stop-color="#6DCDC7"/>
</linearGradient>
<linearGradient id="paint3_linear_398_1017" x1="610.525" y1="127.064" x2="392.222" y2="606.485" gradientUnits="userSpaceOnUse">
<stop offset="0.34" stop-color="#1E817A"/>
<stop offset="1" stop-color="#6DCDC7"/>
</linearGradient>
</defs>
</svg>
