<svg width="1102" height="1102" viewBox="0 0 1102 1102" fill="none" xmlns="http://www.w3.org/2000/svg">
<path d="M384.737 273.853C401.486 273.853 550.946 273.884 552.36 273.853C553.773 273.821 563.521 205.912 552.36 205.912L536.805 205.912C502.962 205.912 425.484 205.911 384.737 205.912C334.463 205.914 367.988 273.853 384.737 273.853Z" fill="#121717"/>
<path d="M865.242 398.408C865.242 426.717 820.543 426.717 820.543 398.408V313.483H736.731C703.207 313.483 708.794 268.189 736.731 268.189H820.543V188.925C820.543 149.293 865.242 154.955 865.242 188.925V268.189H949.053C976.991 268.189 971.403 313.483 949.053 313.483H865.242V398.408Z" fill="#121717"/>
<path d="M686.444 466.349C782.38 563.913 960.228 488.995 965.816 488.996C971.403 488.996 999.34 517.306 988.165 528.629C976.991 539.952 930.423 564.626 887.592 568.26C785.463 576.926 743.745 572.013 680.857 528.629C617.969 485.245 584.043 424.264 570.917 339.625C562.898 287.909 586.546 218.359 587.68 209.405C598.854 169.772 630.34 100.646 686.444 58.7044C788.347 -17.4731 898.204 -22.7159 1010.52 70.0269C1118.78 159.431 1111.09 375.761 1083.15 426.717C1055.21 477.672 1027.28 455.025 1032.86 426.717C1038.45 398.408 1090.56 202.489 988.165 109.661C849.081 -11.6307 732.953 91.0459 693.841 115.324C675.596 126.649 537.979 325.635 686.444 466.349Z" fill="#121717"/>
<path fill-rule="evenodd" clip-rule="evenodd" d="M100.472 135.803C142.943 149.011 179.813 160.476 183.589 171.942C185.238 176.947 193.68 230.631 205.197 303.867C232.761 479.145 277.937 766.421 289.751 766.42C306.5 766.418 334.45 766.42 334.45 766.42L306.513 857.008C285.282 904.043 284.556 917.581 306.513 919.286H351.212C346.146 926.986 337.242 942.226 334.437 947.593C331.631 952.96 328.849 975.902 328.849 981.563C328.849 987.225 328.849 1021.2 334.437 1032.52C340.024 1043.84 358.491 1077.16 390.311 1089.14C416.902 1099.14 457.373 1094.8 468.535 1089.14C479.696 1083.47 510.423 1066.49 524.409 1038.18C538.396 1009.87 535.584 975.902 524.409 953.255C517.863 939.988 513.248 919.286 513.248 919.286H742.331C742.331 919.286 722.722 944.966 719.969 958.916C714.382 987.225 719.462 1020.17 725.556 1032.52C742.319 1066.49 757.476 1082.93 792.606 1094.8C817.446 1103.19 834.736 1102.95 859.655 1094.8C893.459 1083.74 908.132 1066.02 921.116 1032.52C929.132 1011.84 929.601 997.931 926.716 975.904C923.624 952.297 904.367 919.286 904.367 919.286H943.479C982.603 919.289 977.016 857.01 932.304 857.008C887.592 857.006 367.974 857.008 367.974 857.008L401.499 766.42C401.499 766.42 943.471 766.42 960.241 760.758C977.01 755.097 1014.26 610.933 1016.12 585.246C1017.97 559.56 964.064 564.467 956.45 585.246C955.503 587.83 954.245 591.346 952.748 595.535C942.199 625.034 919.733 687.861 909.954 692.819C898.786 698.48 362.372 698.481 351.197 698.481C345.334 698.481 317.944 542.664 291.614 392.88C267.754 257.148 244.765 126.369 239.456 120.986C228.29 109.664 150.077 81.3602 71.8553 53.0534L71.8328 53.0452C-6.39604 24.7357 -23.1576 92.6768 38.3082 115.324C58.2826 122.684 80.0263 129.445 100.472 135.803ZM395.898 1026.86C415.139 1047.98 449.295 1047.98 468.535 1026.86C486.295 1007.36 486.295 978.412 468.535 958.916C449.295 937.796 415.139 937.796 395.898 958.916C378.138 978.412 378.138 1007.36 395.898 1026.86ZM848.48 1032.52C832.333 1043.85 814.339 1043.85 798.193 1032.52C774.871 1016.16 774.87 975.277 798.193 958.916C814.339 947.589 832.333 947.59 848.48 958.916C871.803 975.278 871.804 1016.16 848.48 1032.52Z" fill="#121717"/>
<path d="M552.36 205.912C563.521 205.912 553.773 273.821 552.36 273.853C550.946 273.884 401.486 273.853 384.737 273.853C367.988 273.853 334.463 205.914 384.737 205.912C425.484 205.911 502.962 205.912 536.805 205.912M552.36 205.912L536.805 205.912M552.36 205.912C550.245 205.912 544.717 205.912 536.805 205.912M820.543 398.408C820.543 426.717 865.242 426.717 865.242 398.408M820.543 398.408C820.543 370.1 820.543 313.483 820.543 313.483M820.543 398.408V313.483M865.242 398.408C865.242 370.1 865.242 313.483 865.242 313.483M865.242 398.408V313.483M865.242 313.483C865.242 313.483 926.704 313.483 949.053 313.483M865.242 313.483H949.053M949.053 313.483C971.403 313.483 976.991 268.189 949.053 268.189M949.053 268.189C921.116 268.189 865.242 268.189 865.242 268.189M949.053 268.189H865.242M865.242 268.189C865.242 268.189 865.242 222.895 865.242 188.925M865.242 268.189V188.925M865.242 188.925C865.242 154.955 820.543 149.293 820.543 188.925M820.543 188.925C820.543 228.557 820.543 268.189 820.543 268.189M820.543 188.925V268.189M820.543 268.189C820.543 268.189 764.668 268.189 736.731 268.189M820.543 268.189H736.731M736.731 268.189C708.794 268.189 703.207 313.483 736.731 313.483M736.731 313.483C770.256 313.483 820.543 313.483 820.543 313.483M736.731 313.483H820.543M183.589 171.942C185.238 176.947 193.68 230.631 205.197 303.867C232.761 479.145 277.937 766.421 289.751 766.42C306.5 766.418 334.45 766.42 334.45 766.42L306.513 857.008C285.282 904.043 284.556 917.581 306.513 919.286H351.212C346.146 926.986 337.242 942.226 334.437 947.593C331.631 952.96 328.849 975.902 328.849 981.563C328.849 987.225 328.849 1021.2 334.437 1032.52C340.024 1043.84 358.491 1077.16 390.311 1089.14C416.902 1099.14 457.373 1094.8 468.535 1089.14C479.696 1083.47 510.423 1066.49 524.409 1038.18C538.396 1009.87 535.584 975.902 524.409 953.255C517.863 939.988 513.248 919.286 513.248 919.286H742.331C742.331 919.286 722.722 944.966 719.969 958.916C714.382 987.225 719.462 1020.17 725.556 1032.52C742.319 1066.49 757.476 1082.93 792.606 1094.8C817.446 1103.19 834.736 1102.95 859.655 1094.8C893.459 1083.74 908.132 1066.02 921.116 1032.52C929.132 1011.84 929.601 997.931 926.716 975.904C923.624 952.297 904.367 919.286 904.367 919.286H943.479C982.603 919.289 977.016 857.01 932.304 857.008C887.592 857.006 367.974 857.008 367.974 857.008L401.499 766.42C401.499 766.42 943.471 766.42 960.241 760.758C977.01 755.097 1014.26 610.933 1016.12 585.246C1017.97 559.56 964.064 564.467 956.45 585.246C955.503 587.83 954.245 591.346 952.748 595.535C942.199 625.034 919.733 687.861 909.954 692.819C898.786 698.48 362.372 698.481 351.197 698.481C345.334 698.481 317.944 542.664 291.614 392.88C267.754 257.148 244.765 126.369 239.456 120.986C228.29 109.664 150.077 81.3602 71.8553 53.0534L71.8328 53.0452C-6.39604 24.7357 -23.1576 92.6768 38.3082 115.324C58.2826 122.684 80.0263 129.445 100.472 135.803C142.943 149.011 179.813 160.476 183.589 171.942ZM395.898 1026.86C415.139 1047.98 449.295 1047.98 468.535 1026.86C486.295 1007.36 486.295 978.412 468.535 958.916C449.295 937.796 415.139 937.796 395.898 958.916C378.138 978.412 378.138 1007.36 395.898 1026.86ZM798.193 1032.52C814.339 1043.85 832.333 1043.85 848.48 1032.52C871.804 1016.16 871.803 975.278 848.48 958.916C832.333 947.59 814.339 947.589 798.193 958.916C774.87 975.277 774.871 1016.16 798.193 1032.52ZM965.816 488.996C960.228 488.995 782.38 563.913 686.444 466.349C537.979 325.635 675.596 126.649 693.841 115.324C732.953 91.0459 849.081 -11.6307 988.165 109.661C1090.56 202.489 1038.45 398.408 1032.86 426.717C1027.28 455.025 1055.21 477.672 1083.15 426.717C1111.09 375.761 1118.78 159.431 1010.52 70.0269C898.204 -22.7159 788.347 -17.4731 686.444 58.7044C630.34 100.646 598.854 169.772 587.68 209.405C586.546 218.359 562.898 287.909 570.917 339.625C584.043 424.264 617.969 485.245 680.857 528.629C743.745 572.013 785.463 576.926 887.592 568.26C930.423 564.626 976.991 539.952 988.165 528.629C999.34 517.306 971.403 488.996 965.816 488.996Z" stroke="#121717"/>
</svg>
